<svg width="308" height="341" viewBox="0 0 308 341" fill="none" xmlns="http://www.w3.org/2000/svg">
<path d="M18.4219 197.562H27.7031C32.8594 212.375 39.0469 224.844 46.2656 234.969C53.5781 245 61.5 252.453 70.0312 257.328C78.6562 262.203 87.6562 264.641 97.0312 264.641C108.75 264.641 118.781 260.984 127.125 253.672C135.469 246.359 139.641 236.984 139.641 225.547C139.641 214.859 136.875 206.562 131.344 200.656C125.812 194.656 119.203 190.484 111.516 188.141C103.828 185.703 93.7031 183.453 81.1406 181.391C68.5781 179.328 59.6719 177.406 54.4219 175.625C46.2656 172.812 39.3281 168.969 33.6094 164.094C27.8906 159.125 23.5312 153.219 20.5312 146.375C17.625 139.438 16.1719 132.031 16.1719 124.156C16.1719 116.656 17.4844 109.437 20.1094 102.5C22.7344 95.5625 26.4375 89.4219 31.2188 84.0781C36 78.7344 41.8125 74.5156 48.6562 71.4219C55.5938 68.3281 63.2812 66.7812 71.7188 66.7812C77.8125 66.7812 85.2656 67.6719 94.0781 69.4531C102.984 71.1406 109.453 71.9844 113.484 71.9844C118.547 71.9844 123.328 70.8594 127.828 68.6094H138.516L144.562 126.406H134.719C125.531 109.156 115.875 96.0312 105.75 87.0312C95.7188 77.9375 83.9062 73.3906 70.3125 73.3906C63.5625 73.3906 57.2812 74.9844 51.4688 78.1719C45.6562 81.2656 40.9688 85.5781 37.4062 91.1094C33.9375 96.6406 32.2031 102.734 32.2031 109.391C32.2031 118.766 35.3906 125.938 41.7656 130.906C48.1406 135.875 57.5625 139.625 70.0312 142.156C82.5938 144.688 93.7969 146.844 103.641 148.625C113.578 150.406 121.453 152.703 127.266 155.516C137.953 160.766 146.25 168.031 152.156 177.312C158.062 186.594 161.016 197.094 161.016 208.812C161.016 220.062 158.297 230.562 152.859 240.312C147.422 250.062 139.781 257.891 129.938 263.797C120.094 269.609 109.125 272.516 97.0312 272.516C90.1875 272.516 85.0312 272 81.5625 270.969C78.0938 269.938 72.1406 267.922 63.7031 264.922C55.2656 261.922 48.7969 260.422 44.2969 260.422C36.7969 260.422 30.8438 263.281 26.4375 269H18.4219V197.562ZM129.094 106.578L124.453 79.7188C121.359 80.75 118.266 81.2656 115.172 81.2656C111.797 81.2656 108.141 80.75 104.203 79.7188C107.953 82.1562 111.234 84.875 114.047 87.875C116.859 90.875 119.812 94.4844 122.906 98.7031C126 102.922 128.062 105.547 129.094 106.578ZM23.0625 223.719V261.266C25.7812 257.703 28.2656 255.406 30.5156 254.375C32.8594 253.344 36.4219 252.922 41.2031 253.109C38.1094 249.453 35.8594 246.781 34.4531 245.094C33.1406 243.312 31.4531 240.734 29.3906 237.359C27.4219 233.891 25.3125 229.344 23.0625 223.719ZM23.0625 107.703C21.4688 114.828 20.6719 120.594 20.6719 125C20.6719 129.969 21.5156 134.984 23.2031 140.047C24.8906 145.016 27.375 149.75 30.6562 154.25C33.9375 158.656 37.6406 162.266 41.7656 165.078C47.2969 168.828 53.3906 171.5 60.0469 173.094C66.7031 174.594 76.4062 176.422 89.1562 178.578C102 180.641 110.859 182.656 115.734 184.625C124.734 187.906 131.719 192.922 136.688 199.672C141.75 206.422 144.281 214.344 144.281 223.438C144.281 230.188 142.359 237.312 138.516 244.812C146.203 236.844 150.047 227.516 150.047 216.828C150.047 205.766 147.188 197.094 141.469 190.812C135.844 184.438 128.812 179.75 120.375 176.75C112.031 173.656 100.594 170.844 86.0625 168.312C71.5312 165.688 64.0781 164.328 63.7031 164.234C50.3906 160.766 40.2656 154.766 33.3281 146.234C26.4844 137.703 23.0625 127.859 23.0625 116.703C23.0625 114.641 23.0156 112.906 22.9219 111.5C22.9219 110.094 22.9688 108.828 23.0625 107.703Z" fill="black"/>
<path d="M298.625 68.5781H134.797L117.5 114.141H127.906C133.531 107.672 139.812 101.859 146.75 96.7031C153.688 91.4531 160.531 87.2344 167.281 84.0469C174.031 80.8594 180.406 78.75 186.406 77.7188C191.844 76.7812 197.422 76.3125 203.141 76.3125C212.609 76.3125 219.359 77.25 223.391 79.125C227.328 80.9063 229.812 84.1406 230.844 88.8281C231.875 93.4219 232.391 101.25 232.391 112.312V160.688H206.797C193.859 160.688 184.109 157.828 177.547 152.109C170.891 146.297 167.422 137.438 167.141 125.531H157.016V200.766H167.141C167.984 191.297 169.672 184.359 172.203 179.953C174.734 175.453 178.766 172.453 184.297 170.953C189.734 169.359 197.609 168.562 207.922 168.562H232.391V237.328C232.391 245.484 230.141 251.203 225.641 254.484C221.047 257.672 213.031 259.266 201.594 259.266H197.938V267H297.781V259.266C288.594 258.984 281.938 258.047 277.812 256.453C273.688 254.859 270.969 252.188 269.656 248.438C268.25 244.594 267.547 238.781 267.547 231V108.094V101.344C267.547 92.3438 269.234 85.875 272.609 81.9375C275.891 78 283.344 76.0312 294.969 76.0312C295.625 76.0312 296.234 76.0781 296.797 76.1719C297.359 76.1719 297.969 76.2187 298.625 76.3125V68.5781ZM134.797 99.6562L148.578 76.3125H174.875C169.062 78.1875 163.906 80.2969 159.406 82.6406C154.906 84.8906 151.062 87.1875 147.875 89.5312C144.594 91.875 140.234 95.25 134.797 99.6562ZM168.266 178.266V148.594C170.234 152.438 172.672 155.391 175.578 157.453C178.391 159.516 182.656 161.578 188.375 163.641C182.75 165.047 178.391 166.875 175.297 169.125C172.109 171.281 169.766 174.328 168.266 178.266ZM254.047 241.125V108.656C254.047 99 254.375 92.0156 255.031 87.7031C255.594 83.3906 257.281 80.25 260.094 78.2812C262.906 76.3125 267.594 75.6562 274.156 76.3125C269.188 78.0938 266.094 80.625 264.875 83.9062C263.656 87.1875 263.047 93.5156 263.047 102.891V234.516C263.047 240.328 263.281 244.641 263.75 247.453C264.125 250.266 264.969 252.516 266.281 254.203C267.594 255.797 269.844 257.484 273.031 259.266C266.094 259.359 261.219 258.047 258.406 255.328C255.5 252.516 254.047 247.781 254.047 241.125Z" fill="black"/>
</svg>
